# xmcd
#
# Track frame offsets:
#	150
#	15469
#	34474
#	50810
#	73663
#	93328
#	111308
#	125773
#	143792
#	164367
#	181007
#	199236
#
# Disc length: 2879 seconds
#
# Revision: 1
# Processed by: cddbd v1.5.2PL0 Copyright (c) Steve Scherf et al.
# Submitted via: audiograbber 1.83.01
#
DISCID=af0b3d0c
DTITLE=Richie McDonald - In My Own Words
DYEAR=2007
DGENRE=Country
TTITLE0=God's Still In America
TTITLE1=Growing Old Together
TTITLE2=He Wants To Be Like Me
TTITLE3=Measure Of A Man
TTITLE4=We Can Find A Way
TTITLE5=Guntersville Gazette
TTITLE6=Hypothetically
TTITLE7=Something You Don't See Song
TTITLE8=Dandelion Dust
TTITLE9=Hey God
TTITLE10=Let Them Be Little
TTITLE11=West Texas Wind
EXTD=
EXTT0=
EXTT1=
EXTT2=
EXTT3=
EXTT4=
EXTT5=
EXTT6=
EXTT7=
EXTT8=
EXTT9=
EXTT10=
EXTT11=
PLAYORDER=
